<?xml version="1.0" encoding="UTF-8" standalone="no"?>
<!DOCTYPE svg PUBLIC "-//W3C//DTD SVG 1.0//EN" "http://www.w3.org/TR/2001/REC-SVG-20010904/DTD/svg10.dtd">
<!-- Generated by Microsoft Visio 11.0, SVG Export, v1.0 Face.svg Face -->
<svg xmlns="http://www.w3.org/2000/svg" xmlns:xlink="http://www.w3.org/1999/xlink" xmlns:ev="http://www.w3.org/2001/xml-events"
		xmlns:v="http://schemas.microsoft.com/visio/2003/SVGExtensions/" width="2.69685in" height="3.36614in"
		viewBox="0 0 194.173 242.362" xml:space="preserve" color-interpolation-filters="sRGB" class="st24">
	<v:documentProperties v:langID="1033" v:metric="true" v:viewMarkup="false"/>

	<style type="text/css">
	<![CDATA[
		.st1 {fill:url(#grad29-4);stroke:#000000;stroke-linecap:round;stroke-linejoin:round;stroke-width:0.72}
		.st2 {stroke:#ff0000;stroke-dasharray:9.6,4.8;stroke-linecap:butt;stroke-width:1.2}
		.st3 {stroke:#000000;stroke-linecap:round;stroke-linejoin:round;stroke-width:0.24}
		.st4 {stroke:#000000;stroke-linecap:butt;stroke-width:0.24}
		.st5 {fill:none;stroke:none;stroke-linecap:round;stroke-linejoin:round;stroke-width:0.72}
		.st6 {fill:#000000;font-family:Arial;font-size:0.833336em}
		.st7 {font-size:1em}
		.st8 {stroke:#000000;stroke-dasharray:5.76,2.88;stroke-linecap:butt;stroke-width:0.72}
		.st9 {visibility:visible}
		.st10 {marker-start:url(#mrkr13-36);stroke:#000000;stroke-linecap:round;stroke-linejoin:round;stroke-width:1.2}
		.st11 {fill:#000000;fill-opacity:1;stroke:#000000;stroke-opacity:1;stroke-width:0.32258064516129}
		.st12 {marker-start:url(#mrkr13-41);stroke:#33cc33;stroke-linecap:round;stroke-linejoin:round;stroke-width:1.2}
		.st13 {fill:#33cc33;fill-opacity:1;stroke:#33cc33;stroke-opacity:1;stroke-width:0.32258064516129}
		.st14 {marker-end:url(#mrkr13-48);stroke:#000000;stroke-linecap:round;stroke-linejoin:round;stroke-width:1.2}
		.st15 {marker-end:url(#mrkr13-53);stroke:#33cc33;stroke-linecap:round;stroke-linejoin:round;stroke-width:1.2}
		.st16 {fill:#000000;font-family:Arial;font-size:1.00001em;font-weight:bold}
		.st17 {fill:#33cc33;font-family:Arial;font-size:1.00001em;font-weight:bold}
		.st18 {stroke:#ff6600;stroke-linecap:round;stroke-linejoin:round;stroke-width:0.72}
		.st19 {stroke:#008000;stroke-linecap:round;stroke-linejoin:round;stroke-width:0.72}
		.st20 {stroke:#0000ff;stroke-linecap:round;stroke-linejoin:round;stroke-width:0.72}
		.st21 {stroke:#000000;stroke-linecap:round;stroke-linejoin:round;stroke-width:0.25}
		.st22 {fill:#808080;stroke:#000000;stroke-linecap:round;stroke-linejoin:round;stroke-width:0.72}
		.st23 {fill:#ffdd57;stroke:#000000;stroke-linecap:round;stroke-linejoin:round;stroke-width:0.24}
		.st24 {fill:none;fill-rule:evenodd;font-size:12px;overflow:visible;stroke-linecap:square;stroke-miterlimit:3}
	]]>
	</style>

	<defs id="Patterns_And_Gradients">
		<linearGradient id="grad29-4" v:fillPattern="29" v:foreground="#ffffff" v:background="#000000" x1="0" y1="0" x2="0" y2="1">
			<stop offset="0" style="stop-color:#000000;stop-opacity:1"/>
			<stop offset="0.5" style="stop-color:#ffffff;stop-opacity:1"/>
			<stop offset="1" style="stop-color:#000000;stop-opacity:1"/>
		</linearGradient>
	</defs>
	<defs id="Markers">
		<g id="lend13">
			<path d="M 3 1 L 0 0 L 3 -1 L 3 1 " style="stroke:none"/>
		</g>
		<marker id="mrkr13-36" class="st11" v:arrowType="13" v:arrowSize="2" v:setback="9" refX="9" orient="auto"
				markerUnits="strokeWidth" overflow="visible">
			<use xlink:href="#lend13" transform="scale(3.1) "/>
		</marker>
		<marker id="mrkr13-41" class="st13" v:arrowType="13" v:arrowSize="2" v:setback="9" refX="9" orient="auto"
				markerUnits="strokeWidth" overflow="visible">
			<use xlink:href="#lend13" transform="scale(3.1) "/>
		</marker>
		<marker id="mrkr13-48" class="st11" v:arrowType="13" v:arrowSize="2" v:setback="9.3" refX="-9.3" orient="auto"
				markerUnits="strokeWidth" overflow="visible">
			<use xlink:href="#lend13" transform="scale(-3.1,-3.1) "/>
		</marker>
		<marker id="mrkr13-53" class="st13" v:arrowType="13" v:arrowSize="2" v:setback="9.3" refX="-9.3" orient="auto"
				markerUnits="strokeWidth" overflow="visible">
			<use xlink:href="#lend13" transform="scale(-3.1,-3.1) "/>
		</marker>
	</defs>
	<g v:mID="40" v:index="6" v:groupContext="foregroundPage">
		<title>Face</title>
		<v:pageProperties v:drawingScale="0.0393701" v:pageScale="0.0393701" v:drawingUnits="24" v:shadowOffsetX="8.50394"
				v:shadowOffsetY="-8.50394"/>
		<v:layer v:name="Callout" v:index="0"/>
		<g id="shape1-1" v:mID="1" v:groupContext="shape" transform="translate(7.08661,-113.386)">
			<title>Sheet.1</title>
			<rect x="0" y="120.472" width="113.386" height="121.89" class="st1"/>
		</g>
		<g id="shape2-5" v:mID="2" v:groupContext="shape" transform="translate(7.08661,-174.331)">
			<title>Sheet.2</title>
			<path d="M0 242.36 L127.56 242.36" class="st2"/>
		</g>
		<g id="shape6-8" v:mID="6" v:groupContext="shape" transform="translate(123.307,-113.156)">
			<title>Sheet.6</title>
			<path d="M0 242.36 L25.51 242.36" class="st3"/>
		</g>
		<g id="shape7-11" v:mID="7" v:groupContext="shape" transform="translate(123.307,-174.331)">
			<title>Sheet.7</title>
			<path d="M0 242.36 L25.51 242.36" class="st4"/>
		</g>
		<g id="shape9-14" v:mID="9" v:groupContext="shape" transform="translate(367.25,137.726) rotate(90)">
			<title>Sheet.9</title>
			<path d="M0 242.36 L11.28 242.36" class="st4"/>
		</g>
		<g id="shape10-17" v:mID="10" v:groupContext="shape" transform="translate(150.063,-164.331)">
			<title>Sheet.10</title>
			<desc>X End</desc>
			<v:textBlock v:margins="rect(4,4,4,4)" v:tabSpace="42.5197"/>
			<v:textRect cx="17.8031" cy="232.362" width="35.61" height="20"/>
			<rect x="0" y="222.362" width="35.6063" height="20" class="st5"/>
			<text x="4" y="235.36" class="st6" v:langID="1033"><v:paragraph/><v:tabList/>X End</text>		</g>
		<g id="shape11-20" v:mID="11" v:groupContext="shape" transform="translate(150.063,-103.307)">
			<title>Sheet.11</title>
			<desc>X Start</desc>
			<v:textBlock v:margins="rect(4,4,4,4)" v:tabSpace="42.5197"/>
			<v:textRect cx="20.6378" cy="232.362" width="41.28" height="20"/>
			<rect x="0" y="222.362" width="41.2756" height="20" class="st5"/>
			<text x="4" y="235.36" class="st6" v:langID="1033"><v:paragraph/><v:tabList/>X Start</text>		</g>
		<g id="shape13-23" v:mID="13" v:groupContext="shape" transform="translate(41.1024,-83.3539)">
			<title>Sheet.13</title>
			<desc>Z Step</desc>
			<v:textBlock v:margins="rect(4,4,4,4)" v:tabSpace="42.5197"/>
			<v:textRect cx="22.6484" cy="232.362" width="45.3" height="20"/>
			<rect x="0" y="222.362" width="45.2969" height="20" class="st5"/>
			<text x="11.84" y="235.36" class="st6" v:langID="1033"><v:paragraph v:horizAlign="2"/><v:tabList/>Z St<tspan
						class="st7" v:langID="3081">ep</tspan></text>		</g>
		<g id="shape14-27" v:mID="14" v:groupContext="shape" transform="translate(124.887,391.371) rotate(180)">
			<title>Sheet.14</title>
			<path d="M0 242.36 L38.83 242.36" class="st8"/>
		</g>
		<g id="shape18-30" v:mID="18" v:groupContext="shape" transform="translate(-235.276,110.551) rotate(-90)">
			<title>Sheet.18</title>
			<g id="shadow18-31" v:groupContext="shadow" v:shadowOffsetX="0.425197" v:shadowOffsetY="-0.425197" v:shadowType="1"
					transform="matrix(1,0,0,1,-0.425197,0.425197)" class="st9">
				<path d="M10.8 242.36 L11.16 242.36 L42.52 242.36" class="st10"/>
			</g>
			<path d="M10.8 242.36 L11.16 242.36 L42.52 242.36" class="st12"/>
		</g>
		<g id="shape19-42" v:mID="19" v:groupContext="shape" transform="translate(7.08661,-174.331)">
			<title>Sheet.19</title>
			<g id="shadow19-43" v:groupContext="shadow" v:shadowOffsetX="0.425197" v:shadowOffsetY="-0.425197" v:shadowType="1"
					transform="matrix(1,0,0,1,0.425197,0.425197)" class="st9">
				<path d="M0 242.36 L31.36 242.36" class="st14"/>
			</g>
			<path d="M0 242.36 L31.36 242.36" class="st15"/>
		</g>
		<g id="shape20-54" v:mID="20" v:groupContext="shape" transform="translate(32.5984,-178.166)">
			<title>Sheet.20</title>
			<desc>Z</desc>
			<v:textBlock v:margins="rect(4,4,4,4)" v:tabSpace="42.5197"/>
			<v:textRect cx="11.3386" cy="234.358" width="22.68" height="16.0074"/>
			<g id="shadow20-55" v:groupContext="shadow" v:shadowOffsetX="0.425197" v:shadowOffsetY="-0.425197" v:shadowType="1"
					transform="matrix(1,0,0,1,0.425197,0.425197)" class="st9">
				<rect x="0" y="226.355" width="22.6772" height="16.0074" class="st5"/>
				<text x="7.67" y="237.96" class="st16" v:langID="1033"><v:paragraph v:horizAlign="1"/><v:tabList/>Z</text>			</g>
			<rect x="0" y="226.355" width="22.6772" height="16.0074" class="st5"/>
			<text x="7.67" y="237.96" class="st17" v:langID="1033"><v:paragraph v:horizAlign="1"/><v:tabList/>Z</text>		</g>
		<g id="shape21-60" v:mID="21" v:groupContext="shape" transform="translate(6.58638,-129.477)">
			<title>Sheet.21</title>
			<desc>X</desc>
			<v:textBlock v:margins="rect(4,4,4,4)" v:tabSpace="42.5197"/>
			<v:textRect cx="11.3386" cy="234.358" width="22.68" height="16.0074"/>
			<g id="shadow21-61" v:groupContext="shadow" v:shadowOffsetX="0.425197" v:shadowOffsetY="-0.425197" v:shadowType="1"
					transform="matrix(1,0,0,1,0.425197,0.425197)" class="st9">
				<rect x="0" y="226.355" width="22.6772" height="16.0074" class="st5"/>
				<text x="7.34" y="237.96" class="st16" v:langID="1033"><v:paragraph v:horizAlign="1"/><v:tabList/>X</text>			</g>
			<rect x="0" y="226.355" width="22.6772" height="16.0074" class="st5"/>
			<text x="7.34" y="237.96" class="st17" v:langID="1033"><v:paragraph v:horizAlign="1"/><v:tabList/>X</text>		</g>
		<g id="shape22-66" v:mID="22" v:groupContext="shape" transform="translate(-119.055,129.206) rotate(-90)">
			<title>Sheet.22</title>
			<path d="M0 242.36 L61.17 242.36" class="st18"/>
		</g>
		<g id="shape23-69" v:mID="23" v:groupContext="shape" transform="translate(123.307,-174.331)">
			<title>Sheet.23</title>
			<path d="M0 242.36 L5.67 242.36" class="st19"/>
		</g>
		<g id="shape24-72" v:mID="24" v:groupContext="shape" transform="translate(371.339,68.0315) rotate(90)">
			<title>Sheet.24</title>
			<path d="M0 242.36 L61.17 242.36" class="st19"/>
		</g>
		<g id="shape25-75" v:mID="25" v:groupContext="shape" transform="translate(128.976,371.568) rotate(180)">
			<title>Sheet.25</title>
			<path d="M0 242.36 L5.67 242.36" class="st20"/>
		</g>
		<g id="shape26-78" v:mID="26" v:groupContext="shape" transform="translate(121.89,-143.15)">
			<title>Sheet.26</title>
			<path d="M2.83 242.36 L1.42 239.53 L0 242.36" class="st18"/>
		</g>
		<g id="shape27-81" v:mID="27" v:groupContext="shape" transform="translate(130.394,338.74) rotate(180)">
			<title>Sheet.27</title>
			<path d="M2.83 242.36 L1.42 239.53 L0 242.36" class="st19"/>
		</g>
		<g id="shape28-84" v:mID="28" v:groupContext="shape" transform="translate(367.087,66.6142) rotate(90)">
			<title>Sheet.28</title>
			<path d="M2.83 242.36 L1.42 239.53 L0 242.36" class="st19"/>
		</g>
		<g id="shape29-87" v:mID="29" v:groupContext="shape" transform="translate(-114.803,130.677) rotate(-90)">
			<title>Sheet.29</title>
			<path d="M2.83 242.36 L1.42 239.53 L0 242.36" class="st20"/>
		</g>
		<g id="group15-90" transform="translate(120.472,-105.537)" v:mID="15" v:groupContext="group">
			<title>Sheet.15</title>
			<g id="shape8-91" v:mID="8" v:groupContext="shape">
				<title>Sheet.8</title>
				<path d="M0 237.35 A1.47165 2.50726 -180 0 0 1.47 239.85 L2.94 239.85 A1.47165 2.50726 0 0 1 4.41 242.36"
						class="st21"/>
			</g>
			<g id="shape12-94" v:mID="12" v:groupContext="shape" transform="translate(8.82992,0) scale(-1,1)">
				<title>Sheet.12</title>
				<path d="M0 237.35 A1.47165 2.50726 -180 0 0 1.47 239.85 L2.94 239.85 A1.47165 2.50726 0 0 1 4.41 242.36"
						class="st21"/>
			</g>
		</g>
		<g id="group3-97" transform="translate(129.302,-72.8504)" v:mID="3" v:groupContext="group">
			<title>Sheet.3</title>
			<g id="shape4-98" v:mID="4" v:groupContext="shape" transform="translate(2.50866,0)">
				<title>Sheet.4</title>
				<path d="M17.01 212.33 L11.91 209.68 L5.67 209.68 L0 212.33 L0 242.36 L17.01 242.36 L17.01 212.33 Z" class="st22"/>
			</g>
			<g id="shape5-100" v:mID="5" v:groupContext="shape" transform="translate(190.898,62.1475) rotate(53.7)">
				<title>Sheet.5</title>
				<path d="M12.13 242.36 L23.95 237.08 a0.46162 0.566929 -180 0 0 2.4869E-014 -1.06548 L12.13 230.73 L0.3 236.01 a0.46162
							 0.566929 -180 0 0 -5.71765E-015 1.06548 L12.13 242.36 Z" class="st23"/>
			</g>
		</g>
	</g>
</svg>
