<?xml version="1.0" encoding="UTF-8" standalone="no"?>
<!DOCTYPE svg PUBLIC "-//W3C//DTD SVG 1.0//EN" "http://www.w3.org/TR/2001/REC-SVG-20010904/DTD/svg10.dtd">
<!-- Generated by Microsoft Visio 11.0, SVG Export, v1.0 Turn.svg Turn -->
<svg xmlns="http://www.w3.org/2000/svg" xmlns:xlink="http://www.w3.org/1999/xlink" xmlns:ev="http://www.w3.org/2001/xml-events"
		xmlns:v="http://schemas.microsoft.com/visio/2003/SVGExtensions/" width="2.71654in" height="3.16142in"
		viewBox="0 0 195.591 227.622" xml:space="preserve" color-interpolation-filters="sRGB" class="st22">
	<v:documentProperties v:langID="1033" v:metric="true" v:viewMarkup="false"/>

	<style type="text/css">
	<![CDATA[
		.st1 {fill:url(#grad29-4);stroke:#000000;stroke-linecap:round;stroke-linejoin:round;stroke-width:0.72}
		.st2 {stroke:#ff0000;stroke-dasharray:9.6,4.8;stroke-linecap:butt;stroke-width:1.2}
		.st3 {stroke:#000000;stroke-linecap:butt;stroke-width:0.24}
		.st4 {fill:none;stroke:none;stroke-linecap:round;stroke-linejoin:round;stroke-width:0.72}
		.st5 {fill:#000000;font-family:Arial;font-size:0.833336em}
		.st6 {font-size:1em}
		.st7 {visibility:visible}
		.st8 {marker-start:url(#mrkr13-30);stroke:#000000;stroke-linecap:round;stroke-linejoin:round;stroke-width:1.2}
		.st9 {fill:#000000;fill-opacity:1;stroke:#000000;stroke-opacity:1;stroke-width:0.32258064516129}
		.st10 {marker-start:url(#mrkr13-35);stroke:#33cc33;stroke-linecap:round;stroke-linejoin:round;stroke-width:1.2}
		.st11 {fill:#33cc33;fill-opacity:1;stroke:#33cc33;stroke-opacity:1;stroke-width:0.32258064516129}
		.st12 {marker-end:url(#mrkr13-42);stroke:#000000;stroke-linecap:round;stroke-linejoin:round;stroke-width:1.2}
		.st13 {marker-end:url(#mrkr13-47);stroke:#33cc33;stroke-linecap:round;stroke-linejoin:round;stroke-width:1.2}
		.st14 {fill:#000000;font-family:Arial;font-size:1.00001em;font-weight:bold}
		.st15 {fill:#33cc33;font-family:Arial;font-size:1.00001em;font-weight:bold}
		.st16 {stroke:#ff6600;stroke-linecap:round;stroke-linejoin:round;stroke-width:0.72}
		.st17 {stroke:#008000;stroke-linecap:round;stroke-linejoin:round;stroke-width:0.72}
		.st18 {stroke:#000000;stroke-linecap:round;stroke-linejoin:round;stroke-width:0.5}
		.st19 {stroke:#000000;stroke-linecap:round;stroke-linejoin:round;stroke-width:0.72}
		.st20 {fill:#808080;stroke:#000000;stroke-linecap:round;stroke-linejoin:round;stroke-width:0.72}
		.st21 {fill:#ffdd57;stroke:#000000;stroke-linecap:round;stroke-linejoin:round;stroke-width:0.24}
		.st22 {fill:none;fill-rule:evenodd;font-size:12px;overflow:visible;stroke-linecap:square;stroke-miterlimit:3}
	]]>
	</style>

	<defs id="Patterns_And_Gradients">
		<linearGradient id="grad29-4" v:fillPattern="29" v:foreground="#ffffff" v:background="#000000" x1="0" y1="0" x2="0" y2="1">
			<stop offset="0" style="stop-color:#000000;stop-opacity:1"/>
			<stop offset="0.5" style="stop-color:#ffffff;stop-opacity:1"/>
			<stop offset="1" style="stop-color:#000000;stop-opacity:1"/>
		</linearGradient>
	</defs>
	<defs id="Markers">
		<g id="lend13">
			<path d="M 3 1 L 0 0 L 3 -1 L 3 1 " style="stroke:none"/>
		</g>
		<marker id="mrkr13-30" class="st9" v:arrowType="13" v:arrowSize="2" v:setback="9" refX="9" orient="auto"
				markerUnits="strokeWidth" overflow="visible">
			<use xlink:href="#lend13" transform="scale(3.1) "/>
		</marker>
		<marker id="mrkr13-35" class="st11" v:arrowType="13" v:arrowSize="2" v:setback="9" refX="9" orient="auto"
				markerUnits="strokeWidth" overflow="visible">
			<use xlink:href="#lend13" transform="scale(3.1) "/>
		</marker>
		<marker id="mrkr13-42" class="st9" v:arrowType="13" v:arrowSize="2" v:setback="9.3" refX="-9.3" orient="auto"
				markerUnits="strokeWidth" overflow="visible">
			<use xlink:href="#lend13" transform="scale(-3.1,-3.1) "/>
		</marker>
		<marker id="mrkr13-47" class="st11" v:arrowType="13" v:arrowSize="2" v:setback="9.3" refX="-9.3" orient="auto"
				markerUnits="strokeWidth" overflow="visible">
			<use xlink:href="#lend13" transform="scale(-3.1,-3.1) "/>
		</marker>
	</defs>
	<g v:mID="41" v:index="11" v:groupContext="foregroundPage">
		<title>Turn</title>
		<v:pageProperties v:drawingScale="0.0393701" v:pageScale="0.0393701" v:drawingUnits="24" v:shadowOffsetX="8.50394"
				v:shadowOffsetY="-8.50394"/>
		<g id="shape1-1" v:mID="1" v:groupContext="shape" transform="translate(1.9864,-102.094)">
			<title>Sheet.1</title>
			<path d="M20.69 105.73 L0 105.73 L0 227.62 L20.69 227.62 L20.69 222.43 L113.39 222.43 L113.39 110.93 L20.69 110.93 L20.69
						 105.73 Z" class="st1"/>
		</g>
		<g id="shape2-5" v:mID="2" v:groupContext="shape" transform="translate(1.9864,-163.039)">
			<title>Sheet.2</title>
			<path d="M0 227.62 L127.56 227.62" class="st2"/>
		</g>
		<g id="shape6-8" v:mID="6" v:groupContext="shape" transform="translate(250.868,125.811) rotate(90)">
			<title>Sheet.6</title>
			<path d="M0 227.62 L14.17 227.62" class="st3"/>
		</g>
		<g id="shape7-11" v:mID="7" v:groupContext="shape" transform="translate(347.168,120.331) rotate(90)">
			<title>Sheet.7</title>
			<path d="M0 227.62 L20.79 227.62" class="st3"/>
		</g>
		<g id="shape9-14" v:mID="9" v:groupContext="shape" transform="translate(144.318,-93.2756)">
			<title>Sheet.9</title>
			<desc>X Step</desc>
			<v:textBlock v:margins="rect(4,4,4,4)" v:tabSpace="42.5197"/>
			<v:textRect cx="19.8262" cy="217.622" width="39.66" height="20"/>
			<rect x="0" y="207.622" width="39.6524" height="20" class="st4"/>
			<text x="4" y="220.62" class="st5" v:langID="1033"><v:paragraph/><v:tabList/>X <tspan class="st6" v:langID="3081">Step</tspan></text>		</g>
		<g id="shape10-18" v:mID="10" v:groupContext="shape" transform="translate(-194.455,177.969) rotate(-90)">
			<title>Sheet.10</title>
			<desc>Z End</desc>
			<v:textBlock v:margins="rect(4,4,4,4)" v:tabSpace="42.5197"/>
			<v:textRect cx="19.2205" cy="217.622" width="38.45" height="20"/>
			<rect x="0" y="207.622" width="38.4409" height="20" class="st4"/>
			<text x="7.76" y="220.62" class="st5" v:langID="1033"><v:paragraph v:horizAlign="2"/><v:tabList/>Z End</text>		</g>
		<g id="shape11-21" v:mID="11" v:groupContext="shape" transform="translate(-100.911,178.142) rotate(-90)">
			<title>Sheet.11</title>
			<desc>Z Start</desc>
			<v:textBlock v:margins="rect(4,4,4,4)" v:tabSpace="42.5197"/>
			<v:textRect cx="19.2205" cy="217.622" width="38.45" height="20"/>
			<rect x="0" y="207.622" width="38.4409" height="20" class="st4"/>
			<text x="4.44" y="220.62" class="st5" v:langID="1033"><v:paragraph v:horizAlign="2"/><v:tabList/>Z Start</text>		</g>
		<g id="shape14-24" v:mID="14" v:groupContext="shape" transform="translate(-225.636,107.102) rotate(-90)">
			<title>Sheet.14</title>
			<g id="shadow14-25" v:groupContext="shadow" v:shadowOffsetX="0.425197" v:shadowOffsetY="-0.425197" v:shadowType="1"
					transform="matrix(1,0,0,1,-0.425197,0.425197)" class="st7">
				<path d="M10.8 227.62 L11.16 227.62 L42.52 227.62" class="st8"/>
			</g>
			<path d="M10.8 227.62 L11.16 227.62 L42.52 227.62" class="st10"/>
		</g>
		<g id="shape15-36" v:mID="15" v:groupContext="shape" transform="translate(1.9864,-163.039)">
			<title>Sheet.15</title>
			<g id="shadow15-37" v:groupContext="shadow" v:shadowOffsetX="0.425197" v:shadowOffsetY="-0.425197" v:shadowType="1"
					transform="matrix(1,0,0,1,0.425197,0.425197)" class="st7">
				<path d="M0 227.62 L31.36 227.62" class="st12"/>
			</g>
			<path d="M0 227.62 L31.36 227.62" class="st13"/>
		</g>
		<g id="shape16-48" v:mID="16" v:groupContext="shape" transform="translate(27.4982,-166.874)">
			<title>Sheet.16</title>
			<desc>Z</desc>
			<v:textBlock v:margins="rect(4,4,4,4)" v:tabSpace="42.5197"/>
			<v:textRect cx="11.3386" cy="219.618" width="22.68" height="16.0074"/>
			<g id="shadow16-49" v:groupContext="shadow" v:shadowOffsetX="0.425197" v:shadowOffsetY="-0.425197" v:shadowType="1"
					transform="matrix(1,0,0,1,0.425197,0.425197)" class="st7">
				<rect x="0" y="211.615" width="22.6772" height="16.0074" class="st4"/>
				<text x="7.67" y="223.22" class="st14" v:langID="1033"><v:paragraph v:horizAlign="1"/><v:tabList/>Z</text>			</g>
			<rect x="0" y="211.615" width="22.6772" height="16.0074" class="st4"/>
			<text x="7.67" y="223.22" class="st15" v:langID="1033"><v:paragraph v:horizAlign="1"/><v:tabList/>Z</text>		</g>
		<g id="shape17-54" v:mID="17" v:groupContext="shape" transform="translate(1.48617,-118.185)">
			<title>Sheet.17</title>
			<desc>X</desc>
			<v:textBlock v:margins="rect(4,4,4,4)" v:tabSpace="42.5197"/>
			<v:textRect cx="11.3386" cy="219.618" width="22.68" height="16.0074"/>
			<g id="shadow17-55" v:groupContext="shadow" v:shadowOffsetX="0.425197" v:shadowOffsetY="-0.425197" v:shadowType="1"
					transform="matrix(1,0,0,1,0.425197,0.425197)" class="st7">
				<rect x="0" y="211.615" width="22.6772" height="16.0074" class="st4"/>
				<text x="7.34" y="223.22" class="st14" v:langID="1033"><v:paragraph v:horizAlign="1"/><v:tabList/>X</text>			</g>
			<rect x="0" y="211.615" width="22.6772" height="16.0074" class="st4"/>
			<text x="7.34" y="223.22" class="st15" v:langID="1033"><v:paragraph v:horizAlign="1"/><v:tabList/>X</text>		</g>
		<g id="shape18-60" v:mID="18" v:groupContext="shape" transform="translate(119.545,350.315) rotate(180)">
			<title>Sheet.18</title>
			<path d="M0 227.62 L95.73 227.62" class="st16"/>
		</g>
		<g id="shape19-63" v:mID="19" v:groupContext="shape" transform="translate(184.764,-38.2602) rotate(45)">
			<title>Sheet.19</title>
			<path d="M0 227.62 L8.02 227.62" class="st17"/>
		</g>
		<g id="shape20-66" v:mID="20" v:groupContext="shape" transform="translate(29.4803,-99.2598)">
			<title>Sheet.20</title>
			<path d="M0 227.62 L90.2 227.62" class="st17"/>
		</g>
		<g id="shape21-69" v:mID="21" v:groupContext="shape" transform="translate(-107.944,128.362) rotate(-90)">
			<title>Sheet.21</title>
			<path d="M0 227.62 L5.67 227.62" class="st17"/>
		</g>
		<g id="shape22-72" v:mID="22" v:groupContext="shape" transform="translate(-160.439,124.11) rotate(-90)">
			<title>Sheet.22</title>
			<path d="M2.83 227.62 L1.42 224.79 L0 227.62" class="st16"/>
		</g>
		<g id="shape23-75" v:mID="23" v:groupContext="shape" transform="translate(294.805,126.945) rotate(90)">
			<title>Sheet.23</title>
			<path d="M2.83 227.62 L1.42 224.79 L0 227.62" class="st17"/>
		</g>
		<g id="shape24-78" v:mID="24" v:groupContext="shape" transform="translate(187.819,284.694) rotate(135)">
			<title>Sheet.24</title>
			<path d="M2.83 227.62 L1.42 224.79 L0 227.62" class="st17"/>
		</g>
		<g id="shape25-81" v:mID="25" v:groupContext="shape" transform="translate(118.207,-100.677)">
			<title>Sheet.25</title>
			<path d="M2.83 227.62 L1.42 224.79 L0 227.62" class="st17"/>
		</g>
		<g id="group28-84" transform="translate(-102.133,128.362) rotate(-90)" v:mID="28" v:groupContext="group">
			<title>Sheet.28</title>
			<g id="shape29-85" v:mID="29" v:groupContext="shape">
				<title>Sheet.29</title>
				<path d="M0 222.61 A1.33858 2.50726 -180 0 0 1.34 225.11 L2.68 225.11 A1.33858 2.50726 0 0 1 4.02 227.62"
						class="st18"/>
			</g>
			<g id="shape30-88" v:mID="30" v:groupContext="shape" transform="translate(8.0315,2.84217E-014) scale(-1,1)">
				<title>Sheet.30</title>
				<path d="M0 222.61 A1.33858 2.50726 -180 0 0 1.34 225.11 L2.68 225.11 A1.33858 2.50726 0 0 1 4.02 227.62"
						class="st18"/>
			</g>
		</g>
		<g id="shape8-91" v:mID="8" v:groupContext="shape" transform="translate(126.711,-103.276)">
			<title>Sheet.8</title>
			<path d="M0 227.62 L19.84 227.62" class="st19"/>
		</g>
		<g id="group3-94" transform="translate(119.787,-49.4803)" v:mID="3" v:groupContext="group">
			<title>Sheet.3</title>
			<g id="shape4-95" v:mID="4" v:groupContext="shape" transform="translate(2.50866,2.84217E-014)">
				<title>Sheet.4</title>
				<path d="M17.01 190.19 L11.91 186.88 L5.67 186.88 L0 190.19 L0 227.62 L17.01 227.62 L17.01 190.19 Z" class="st20"/>
			</g>
			<g id="shape5-97" v:mID="5" v:groupContext="shape" transform="translate(179.018,48.0774) rotate(53.7)">
				<title>Sheet.5</title>
				<path d="M12.13 227.62 L23.95 222.34 a0.46162 0.566929 -180 0 0 2.4869E-014 -1.06548 L12.13 215.99 L0.3 221.27 a0.46162
							 0.566929 -180 0 0 -5.71765E-015 1.06548 L12.13 227.62 Z" class="st21"/>
			</g>
		</g>
	</g>
</svg>
