<?xml version="1.0" encoding="UTF-8" standalone="no"?>
<!DOCTYPE svg PUBLIC "-//W3C//DTD SVG 1.0//EN" "http://www.w3.org/TR/2001/REC-SVG-20010904/DTD/svg10.dtd">
<!-- Generated by Microsoft Visio 11.0, SVG Export, v1.0 Bore.svg Bore -->
<svg xmlns="http://www.w3.org/2000/svg" xmlns:xlink="http://www.w3.org/1999/xlink" xmlns:ev="http://www.w3.org/2001/xml-events"
		xmlns:v="http://schemas.microsoft.com/visio/2003/SVGExtensions/" width="2.71654in" height="3.16142in"
		viewBox="0 0 195.591 227.622" xml:space="preserve" color-interpolation-filters="sRGB" class="st22">
	<v:documentProperties v:langID="1033" v:metric="true" v:viewMarkup="false"/>

	<style type="text/css">
	<![CDATA[
		.st1 {fill:url(#grad29-4);stroke:#000000;stroke-linecap:round;stroke-linejoin:round;stroke-width:0.72}
		.st2 {stroke:#ff0000;stroke-dasharray:9.6,4.8;stroke-linecap:butt;stroke-width:1.2}
		.st3 {fill:#808080;stroke:#000000;stroke-linecap:round;stroke-linejoin:round;stroke-width:0.72}
		.st4 {fill:#ffdd57;stroke:#000000;stroke-linecap:round;stroke-linejoin:round;stroke-width:0.24}
		.st5 {stroke:#ffffff;stroke-dasharray:1.92,0.96;stroke-linecap:butt;stroke-width:0.24}
		.st6 {stroke:#000000;stroke-linecap:butt;stroke-width:0.24}
		.st7 {fill:none;stroke:none;stroke-linecap:round;stroke-linejoin:round;stroke-width:0.72}
		.st8 {fill:#000000;font-family:Arial;font-size:0.833336em}
		.st9 {fill:#000000;font-family:Arial;font-size:0.666664em}
		.st10 {visibility:visible}
		.st11 {marker-start:url(#mrkr13-40);stroke:#000000;stroke-linecap:round;stroke-linejoin:round;stroke-width:1.2}
		.st12 {fill:#000000;fill-opacity:1;stroke:#000000;stroke-opacity:1;stroke-width:0.32258064516129}
		.st13 {marker-start:url(#mrkr13-45);stroke:#33cc33;stroke-linecap:round;stroke-linejoin:round;stroke-width:1.2}
		.st14 {fill:#33cc33;fill-opacity:1;stroke:#33cc33;stroke-opacity:1;stroke-width:0.32258064516129}
		.st15 {marker-end:url(#mrkr13-52);stroke:#000000;stroke-linecap:round;stroke-linejoin:round;stroke-width:1.2}
		.st16 {marker-end:url(#mrkr13-57);stroke:#33cc33;stroke-linecap:round;stroke-linejoin:round;stroke-width:1.2}
		.st17 {fill:#000000;font-family:Arial;font-size:1.00001em;font-weight:bold}
		.st18 {fill:#33cc33;font-family:Arial;font-size:1.00001em;font-weight:bold}
		.st19 {stroke:#000000;stroke-linecap:round;stroke-linejoin:round;stroke-width:0.24}
		.st20 {stroke:#ff6600;stroke-linecap:round;stroke-linejoin:round;stroke-width:0.72}
		.st21 {stroke:#008000;stroke-linecap:round;stroke-linejoin:round;stroke-width:0.72}
		.st22 {fill:none;fill-rule:evenodd;font-size:12px;overflow:visible;stroke-linecap:square;stroke-miterlimit:3}
	]]>
	</style>

	<defs id="Patterns_And_Gradients">
		<linearGradient id="grad29-4" v:fillPattern="29" v:foreground="#ffffff" v:background="#000000" x1="0" y1="0" x2="0" y2="1">
			<stop offset="0" style="stop-color:#000000;stop-opacity:1"/>
			<stop offset="0.5" style="stop-color:#ffffff;stop-opacity:1"/>
			<stop offset="1" style="stop-color:#000000;stop-opacity:1"/>
		</linearGradient>
	</defs>
	<defs id="Markers">
		<g id="lend13">
			<path d="M 3 1 L 0 0 L 3 -1 L 3 1 " style="stroke:none"/>
		</g>
		<marker id="mrkr13-40" class="st12" v:arrowType="13" v:arrowSize="2" v:setback="9" refX="9" orient="auto"
				markerUnits="strokeWidth" overflow="visible">
			<use xlink:href="#lend13" transform="scale(3.1) "/>
		</marker>
		<marker id="mrkr13-45" class="st14" v:arrowType="13" v:arrowSize="2" v:setback="9" refX="9" orient="auto"
				markerUnits="strokeWidth" overflow="visible">
			<use xlink:href="#lend13" transform="scale(3.1) "/>
		</marker>
		<marker id="mrkr13-52" class="st12" v:arrowType="13" v:arrowSize="2" v:setback="9.3" refX="-9.3" orient="auto"
				markerUnits="strokeWidth" overflow="visible">
			<use xlink:href="#lend13" transform="scale(-3.1,-3.1) "/>
		</marker>
		<marker id="mrkr13-57" class="st14" v:arrowType="13" v:arrowSize="2" v:setback="9.3" refX="-9.3" orient="auto"
				markerUnits="strokeWidth" overflow="visible">
			<use xlink:href="#lend13" transform="scale(-3.1,-3.1) "/>
		</marker>
	</defs>
	<g v:mID="27" v:index="17" v:groupContext="foregroundPage">
		<title>Bore</title>
		<v:pageProperties v:drawingScale="0.0393701" v:pageScale="0.0393701" v:drawingUnits="24" v:shadowOffsetX="8.50394"
				v:shadowOffsetY="-8.50394"/>
		<g id="shape31-1" v:mID="31" v:groupContext="shape" transform="translate(1.9864,-104.646)">
			<title>Sheet.31</title>
			<path d="M113.39 129.05 L113.39 105.73 L0 105.73 L0 227.62 L113.39 227.62 L113.39 204.31 L25.42 204.31 L25.42 129.05
						 L113.39 129.05 Z" class="st1"/>
		</g>
		<g id="shape2-5" v:mID="2" v:groupContext="shape" transform="translate(1.89192,-165.591)">
			<title>Sheet.2</title>
			<path d="M0 227.62 L127.56 227.62" class="st2"/>
		</g>
		<g id="group3-8" transform="translate(-60.1329,74.5512) rotate(-90)" v:mID="3" v:groupContext="group">
			<title>Sheet.3</title>
			<g id="shape4-9" v:mID="4" v:groupContext="shape" transform="translate(2.50866,2.84217E-014)">
				<title>Sheet.4</title>
				<path d="M17.01 169.94 L11.91 164.83 L5.67 164.83 L0 169.94 L0 227.62 L17.01 227.62 L17.01 169.94 Z" class="st3"/>
			</g>
			<g id="shape5-11" v:mID="5" v:groupContext="shape" transform="translate(179.018,26.0326) rotate(53.7)">
				<title>Sheet.5</title>
				<path d="M12.13 227.62 L23.95 222.34 a0.46162 0.566929 -180 0 0 2.4869E-014 -1.06548 L12.13 215.99 L0.3 221.27 a0.46162
							 0.566929 -180 0 0 -5.71765E-015 1.06548 L12.13 227.62 Z" class="st4"/>
			</g>
		</g>
		<g id="shape6-13" v:mID="6" v:groupContext="shape" transform="translate(255.026,99.6614) rotate(90)">
			<title>Sheet.6</title>
			<path d="M0 227.62 L23.31 227.62" class="st5"/>
		</g>
		<g id="shape7-16" v:mID="7" v:groupContext="shape" transform="translate(342.994,118.346) rotate(90)">
			<title>Sheet.7</title>
			<path d="M0 227.62 L20.79 227.62" class="st6"/>
		</g>
		<g id="shape8-19" v:mID="8" v:groupContext="shape" transform="translate(144.868,-113.348)">
			<title>Sheet.8</title>
			<desc>X End</desc>
			<v:textBlock v:margins="rect(4,4,4,4)" v:tabSpace="42.5197"/>
			<v:textRect cx="29.937" cy="217.622" width="59.88" height="20"/>
			<rect x="0" y="207.622" width="59.874" height="20" class="st7"/>
			<text x="4" y="220.62" class="st8" v:langID="1033"><v:paragraph/><v:tabList/>X End</text>		</g>
		<g id="shape9-22" v:mID="9" v:groupContext="shape" transform="translate(144.868,-130.031)">
			<title>Sheet.9</title>
			<desc>X Start</desc>
			<v:textBlock v:margins="rect(4,4,4,4)" v:tabSpace="42.5197"/>
			<v:textRect cx="29.937" cy="217.622" width="59.88" height="20"/>
			<rect x="0" y="207.622" width="59.874" height="20" class="st7"/>
			<text x="4" y="220.62" class="st8" v:langID="1033"><v:paragraph/><v:tabList/>X Start</text>		</g>
		<g id="shape10-25" v:mID="10" v:groupContext="shape" transform="translate(-190.218,175.417) rotate(-90)">
			<title>Sheet.10</title>
			<desc>Z End</desc>
			<v:textBlock v:margins="rect(4,4,4,4)" v:tabSpace="42.5197"/>
			<v:textRect cx="19.2205" cy="217.622" width="38.45" height="20"/>
			<rect x="0" y="207.622" width="38.4409" height="20" class="st7"/>
			<text x="7.76" y="220.62" class="st8" v:langID="1033"><v:paragraph v:horizAlign="2"/><v:tabList/>Z End</text>		</g>
		<g id="shape11-28" v:mID="11" v:groupContext="shape" transform="translate(-102.25,175.748) rotate(-90)">
			<title>Sheet.11</title>
			<desc>Z Start</desc>
			<v:textBlock v:margins="rect(4,4,4,4)" v:tabSpace="42.5197"/>
			<v:textRect cx="19.2205" cy="217.622" width="38.45" height="20"/>
			<rect x="0" y="207.622" width="38.4409" height="20" class="st7"/>
			<text x="4.44" y="220.62" class="st8" v:langID="1033"><v:paragraph v:horizAlign="2"/><v:tabList/>Z Start</text>		</g>
		<g id="shape13-31" v:mID="13" v:groupContext="shape" transform="translate(5.43522,-1.1811)">
			<title>Sheet.13</title>
			<desc>X depends on diameter/radius mode (G7/G8)</desc>
			<v:textBlock v:margins="rect(4,4,4,4)" v:tabSpace="42.5197"/>
			<v:textRect cx="88.5827" cy="217.622" width="177.17" height="20"/>
			<rect x="0" y="207.622" width="177.165" height="20" class="st7"/>
			<text x="8.54" y="220.02" class="st9" v:langID="1033"><v:paragraph v:horizAlign="1"/><v:tabList/>X depends on diameter/radius mode (G7/G8)</text>		</g>
		<g id="shape14-34" v:mID="14" v:groupContext="shape" transform="translate(-225.73,104.551) rotate(-90)">
			<title>Sheet.14</title>
			<g id="shadow14-35" v:groupContext="shadow" v:shadowOffsetX="0.425197" v:shadowOffsetY="-0.425197" v:shadowType="1"
					transform="matrix(1,0,0,1,-0.425197,0.425197)" class="st10">
				<path d="M10.8 227.62 L11.16 227.62 L42.52 227.62" class="st11"/>
			</g>
			<path d="M10.8 227.62 L11.16 227.62 L42.52 227.62" class="st13"/>
		</g>
		<g id="shape15-46" v:mID="15" v:groupContext="shape" transform="translate(1.89192,-165.591)">
			<title>Sheet.15</title>
			<g id="shadow15-47" v:groupContext="shadow" v:shadowOffsetX="0.425197" v:shadowOffsetY="-0.425197" v:shadowType="1"
					transform="matrix(1,0,0,1,0.425197,0.425197)" class="st10">
				<path d="M0 227.62 L31.36 227.62" class="st15"/>
			</g>
			<path d="M0 227.62 L31.36 227.62" class="st16"/>
		</g>
		<g id="shape16-58" v:mID="16" v:groupContext="shape" transform="translate(27.4037,-169.426)">
			<title>Sheet.16</title>
			<desc>Z</desc>
			<v:textBlock v:margins="rect(4,4,4,4)" v:tabSpace="42.5197"/>
			<v:textRect cx="11.3386" cy="219.618" width="22.68" height="16.0074"/>
			<g id="shadow16-59" v:groupContext="shadow" v:shadowOffsetX="0.425197" v:shadowOffsetY="-0.425197" v:shadowType="1"
					transform="matrix(1,0,0,1,0.425197,0.425197)" class="st10">
				<rect x="0" y="211.615" width="22.6772" height="16.0074" class="st7"/>
				<text x="7.67" y="223.22" class="st17" v:langID="1033"><v:paragraph v:horizAlign="1"/><v:tabList/>Z</text>			</g>
			<rect x="0" y="211.615" width="22.6772" height="16.0074" class="st7"/>
			<text x="7.67" y="223.22" class="st18" v:langID="1033"><v:paragraph v:horizAlign="1"/><v:tabList/>Z</text>		</g>
		<g id="shape17-64" v:mID="17" v:groupContext="shape" transform="translate(1.39168,-120.736)">
			<title>Sheet.17</title>
			<desc>X</desc>
			<v:textBlock v:margins="rect(4,4,4,4)" v:tabSpace="42.5197"/>
			<v:textRect cx="11.3386" cy="219.618" width="22.68" height="16.0074"/>
			<g id="shadow17-65" v:groupContext="shadow" v:shadowOffsetX="0.425197" v:shadowOffsetY="-0.425197" v:shadowType="1"
					transform="matrix(1,0,0,1,0.425197,0.425197)" class="st10">
				<rect x="0" y="211.615" width="22.6772" height="16.0074" class="st7"/>
				<text x="7.34" y="223.22" class="st17" v:langID="1033"><v:paragraph v:horizAlign="1"/><v:tabList/>X</text>			</g>
			<rect x="0" y="211.615" width="22.6772" height="16.0074" class="st7"/>
			<text x="7.34" y="223.22" class="st18" v:langID="1033"><v:paragraph v:horizAlign="1"/><v:tabList/>X</text>		</g>
		<g id="shape26-70" v:mID="26" v:groupContext="shape" transform="translate(118.112,-123.348)">
			<title>Sheet.26</title>
			<path d="M28.35 227.62 L18.43 227.62 L14.17 223.37 L0 223.37" class="st19"/>
		</g>
		<g id="shape27-73" v:mID="27" v:groupContext="shape" transform="translate(118.112,-135.78)">
			<title>Sheet.27</title>
			<path d="M28.35 223.37 L18.43 223.37 L14.17 227.62 L0 227.62" class="st6"/>
		</g>
		<g id="shape18-76" v:mID="18" v:groupContext="shape" transform="translate(115.37,-130.11) scale(-1,1)">
			<title>Sheet.18</title>
			<path d="M0 227.62 L86.17 227.62" class="st20"/>
		</g>
		<g id="shape19-79" v:mID="19" v:groupContext="shape" transform="translate(190.15,258.465) rotate(-45) scale(1,-1)">
			<title>Sheet.19</title>
			<path d="M0 227.62 L8.02 227.62" class="st21"/>
		</g>
		<g id="shape20-82" v:mID="20" v:groupContext="shape" transform="translate(34.8661,319.465) scale(1,-1)">
			<title>Sheet.20</title>
			<path d="M0 227.62 L80.5 227.62" class="st21"/>
		</g>
		<g id="shape21-85" v:mID="21" v:groupContext="shape" transform="translate(-112.196,91.8425) rotate(-90) scale(-1,1)">
			<title>Sheet.21</title>
			<path d="M0 227.62 L5.67 227.62" class="st21"/>
		</g>
		<g id="shape22-88" v:mID="22" v:groupContext="shape" transform="translate(-155.053,96.0945) rotate(-90) scale(-1,1)">
			<title>Sheet.22</title>
			<path d="M2.83 227.62 L1.42 224.79 L0 227.62" class="st20"/>
		</g>
		<g id="shape23-91" v:mID="23" v:groupContext="shape" transform="translate(300.191,93.2598) rotate(90) scale(-1,1)">
			<title>Sheet.23</title>
			<path d="M2.83 227.62 L1.42 224.79 L0 227.62" class="st21"/>
		</g>
		<g id="shape24-94" v:mID="24" v:groupContext="shape" transform="translate(193.204,-64.4892) rotate(45) scale(-1,1)">
			<title>Sheet.24</title>
			<path d="M2.83 227.62 L1.42 224.79 L0 227.62" class="st21"/>
		</g>
		<g id="shape25-97" v:mID="25" v:groupContext="shape" transform="translate(113.955,320.882) scale(1,-1)">
			<title>Sheet.25</title>
			<path d="M2.83 227.62 L1.42 224.79 L0 227.62" class="st21"/>
		</g>
		<g id="shape28-100" v:mID="28" v:groupContext="shape" transform="translate(255.026,122.976) rotate(90)">
			<title>Sheet.28</title>
			<path d="M0 227.62 L16.16 227.62" class="st6"/>
		</g>
	</g>
</svg>
